<mxfile host="Electron" modified="2024-05-19T15:56:25.591Z" agent="Mozilla/5.0 (Windows NT 10.0; Win64; x64) AppleWebKit/537.36 (KHTML, like Gecko) draw.io/24.4.0 Chrome/120.0.6099.109 Electron/28.1.0 Safari/537.36" etag="fOrufaBZ5-JA5QvYd8GO" version="24.4.0" type="device">
  <diagram name="Page-1" id="3VjWnfycaUagBa_K3ANz">
    <mxGraphModel dx="1689" dy="1262" grid="1" gridSize="10" guides="1" tooltips="1" connect="1" arrows="1" fold="1" page="1" pageScale="1" pageWidth="850" pageHeight="1100" math="0" shadow="0">
      <root>
        <mxCell id="0" />
        <mxCell id="1" parent="0" />
        <mxCell id="5H19UYzy1RIv0YBOH7oe-1" value="&lt;font style=&quot;font-size: 20px;&quot;&gt;Player&lt;/font&gt;" style="swimlane;whiteSpace=wrap;html=1;startSize=30;" vertex="1" parent="1">
          <mxGeometry x="50" y="120" width="320" height="1100" as="geometry" />
        </mxCell>
        <mxCell id="5H19UYzy1RIv0YBOH7oe-4" value="" style="ellipse;html=1;shape=startState;fillColor=#000000;strokeColor=#ff0000;" vertex="1" parent="5H19UYzy1RIv0YBOH7oe-1">
          <mxGeometry x="160" y="40" width="30" height="30" as="geometry" />
        </mxCell>
        <mxCell id="5H19UYzy1RIv0YBOH7oe-5" value="" style="edgeStyle=orthogonalEdgeStyle;html=1;verticalAlign=bottom;endArrow=open;endSize=8;strokeColor=#ff0000;rounded=0;" edge="1" source="5H19UYzy1RIv0YBOH7oe-4" parent="5H19UYzy1RIv0YBOH7oe-1">
          <mxGeometry relative="1" as="geometry">
            <mxPoint x="175" y="130" as="targetPoint" />
          </mxGeometry>
        </mxCell>
        <mxCell id="5H19UYzy1RIv0YBOH7oe-6" value="&lt;font style=&quot;font-size: 16px;&quot;&gt;Bắt đầu game&lt;/font&gt;" style="rounded=1;whiteSpace=wrap;html=1;arcSize=40;fontColor=#000000;fillColor=#ffffc0;strokeColor=#ff0000;" vertex="1" parent="5H19UYzy1RIv0YBOH7oe-1">
          <mxGeometry x="115" y="130" width="120" height="40" as="geometry" />
        </mxCell>
        <mxCell id="5H19UYzy1RIv0YBOH7oe-7" value="" style="edgeStyle=orthogonalEdgeStyle;html=1;verticalAlign=bottom;endArrow=open;endSize=8;strokeColor=#ff0000;rounded=0;" edge="1" source="5H19UYzy1RIv0YBOH7oe-6" parent="5H19UYzy1RIv0YBOH7oe-1">
          <mxGeometry relative="1" as="geometry">
            <mxPoint x="175" y="230" as="targetPoint" />
          </mxGeometry>
        </mxCell>
        <mxCell id="5H19UYzy1RIv0YBOH7oe-8" value="&lt;font style=&quot;font-size: 16px;&quot;&gt;Điều khiển nhân vật lại gần chỗ Truck&lt;/font&gt;" style="rounded=1;whiteSpace=wrap;html=1;arcSize=40;fontColor=#000000;fillColor=#ffffc0;strokeColor=#ff0000;" vertex="1" parent="5H19UYzy1RIv0YBOH7oe-1">
          <mxGeometry x="80" y="230" width="170" height="60" as="geometry" />
        </mxCell>
        <mxCell id="5H19UYzy1RIv0YBOH7oe-12" value="&lt;font style=&quot;font-size: 16px;&quot;&gt;Nhấn phím space để tương tác với truck&lt;/font&gt;" style="rounded=1;whiteSpace=wrap;html=1;arcSize=40;fontColor=#000000;fillColor=#ffffc0;strokeColor=#ff0000;" vertex="1" parent="5H19UYzy1RIv0YBOH7oe-1">
          <mxGeometry x="92.5" y="450" width="165" height="70" as="geometry" />
        </mxCell>
        <mxCell id="5H19UYzy1RIv0YBOH7oe-2" value="&lt;font style=&quot;font-size: 20px;&quot;&gt;System&lt;/font&gt;" style="swimlane;whiteSpace=wrap;html=1;startSize=30;" vertex="1" parent="1">
          <mxGeometry x="370" y="120" width="390" height="1100" as="geometry" />
        </mxCell>
        <mxCell id="5H19UYzy1RIv0YBOH7oe-10" value="&lt;font style=&quot;font-size: 16px;&quot;&gt;Hiện item được random trong truck&lt;/font&gt;" style="rounded=1;whiteSpace=wrap;html=1;arcSize=40;fontColor=#000000;fillColor=#ffffc0;strokeColor=#ff0000;" vertex="1" parent="5H19UYzy1RIv0YBOH7oe-2">
          <mxGeometry x="90" y="300" width="170" height="60" as="geometry" />
        </mxCell>
        <mxCell id="5H19UYzy1RIv0YBOH7oe-9" value="" style="edgeStyle=orthogonalEdgeStyle;html=1;verticalAlign=bottom;endArrow=open;endSize=8;strokeColor=#ff0000;rounded=0;" edge="1" source="5H19UYzy1RIv0YBOH7oe-8" parent="5H19UYzy1RIv0YBOH7oe-2" target="5H19UYzy1RIv0YBOH7oe-10">
          <mxGeometry relative="1" as="geometry">
            <mxPoint x="-175" y="330" as="targetPoint" />
          </mxGeometry>
        </mxCell>
        <mxCell id="5H19UYzy1RIv0YBOH7oe-14" value="&lt;font style=&quot;font-size: 16px;&quot;&gt;Kiểm tra trạng thái character&lt;/font&gt;" style="rounded=1;whiteSpace=wrap;html=1;arcSize=40;fontColor=#000000;fillColor=#ffffc0;strokeColor=#ff0000;" vertex="1" parent="5H19UYzy1RIv0YBOH7oe-2">
          <mxGeometry x="110" y="455" width="140" height="60" as="geometry" />
        </mxCell>
        <mxCell id="5H19UYzy1RIv0YBOH7oe-15" value="" style="edgeStyle=orthogonalEdgeStyle;html=1;verticalAlign=bottom;endArrow=open;endSize=8;strokeColor=#ff0000;rounded=0;" edge="1" source="5H19UYzy1RIv0YBOH7oe-14" parent="5H19UYzy1RIv0YBOH7oe-2">
          <mxGeometry relative="1" as="geometry">
            <mxPoint x="180" y="590" as="targetPoint" />
          </mxGeometry>
        </mxCell>
        <mxCell id="5H19UYzy1RIv0YBOH7oe-16" value="" style="rhombus;whiteSpace=wrap;html=1;fontColor=#000000;fillColor=#ffffc0;strokeColor=#ff0000;" vertex="1" parent="5H19UYzy1RIv0YBOH7oe-2">
          <mxGeometry x="140" y="590" width="80" height="40" as="geometry" />
        </mxCell>
        <mxCell id="5H19UYzy1RIv0YBOH7oe-17" value="&lt;span style=&quot;font-size: 13px;&quot;&gt;Sai&lt;/span&gt;" style="edgeStyle=orthogonalEdgeStyle;html=1;align=left;verticalAlign=bottom;endArrow=open;endSize=8;strokeColor=#ff0000;rounded=0;" edge="1" source="5H19UYzy1RIv0YBOH7oe-16" parent="5H19UYzy1RIv0YBOH7oe-2" target="5H19UYzy1RIv0YBOH7oe-25">
          <mxGeometry x="-1" relative="1" as="geometry">
            <mxPoint x="30" y="610" as="targetPoint" />
            <Array as="points">
              <mxPoint x="95" y="610" />
            </Array>
          </mxGeometry>
        </mxCell>
        <mxCell id="5H19UYzy1RIv0YBOH7oe-23" value="&lt;font style=&quot;font-size: 16px;&quot;&gt;Xuất hiện Item mới&lt;/font&gt;" style="rounded=1;whiteSpace=wrap;html=1;arcSize=40;fontColor=#000000;fillColor=#ffffc0;strokeColor=#ff0000;" vertex="1" parent="5H19UYzy1RIv0YBOH7oe-2">
          <mxGeometry x="210" y="820" width="140" height="60" as="geometry" />
        </mxCell>
        <mxCell id="5H19UYzy1RIv0YBOH7oe-24" value="" style="edgeStyle=orthogonalEdgeStyle;html=1;verticalAlign=bottom;endArrow=open;endSize=8;strokeColor=#ff0000;rounded=0;" edge="1" source="5H19UYzy1RIv0YBOH7oe-23" parent="5H19UYzy1RIv0YBOH7oe-2">
          <mxGeometry relative="1" as="geometry">
            <mxPoint x="280" y="960" as="targetPoint" />
          </mxGeometry>
        </mxCell>
        <mxCell id="5H19UYzy1RIv0YBOH7oe-25" value="&lt;font style=&quot;font-size: 16px;&quot;&gt;Giữ nguyên Item cũ&lt;/font&gt;" style="rounded=1;whiteSpace=wrap;html=1;arcSize=40;fontColor=#000000;fillColor=#ffffc0;strokeColor=#ff0000;" vertex="1" parent="5H19UYzy1RIv0YBOH7oe-2">
          <mxGeometry x="20" y="820" width="150" height="60" as="geometry" />
        </mxCell>
        <mxCell id="5H19UYzy1RIv0YBOH7oe-26" value="" style="edgeStyle=orthogonalEdgeStyle;html=1;verticalAlign=bottom;endArrow=open;endSize=8;strokeColor=#ff0000;rounded=0;" edge="1" source="5H19UYzy1RIv0YBOH7oe-25" parent="5H19UYzy1RIv0YBOH7oe-2">
          <mxGeometry relative="1" as="geometry">
            <mxPoint x="95" y="960" as="targetPoint" />
          </mxGeometry>
        </mxCell>
        <mxCell id="5H19UYzy1RIv0YBOH7oe-27" value="" style="shape=line;html=1;strokeWidth=6;strokeColor=#ff0000;" vertex="1" parent="5H19UYzy1RIv0YBOH7oe-2">
          <mxGeometry x="90" y="960" width="200" height="10" as="geometry" />
        </mxCell>
        <mxCell id="5H19UYzy1RIv0YBOH7oe-28" value="" style="edgeStyle=orthogonalEdgeStyle;html=1;verticalAlign=bottom;endArrow=open;endSize=8;strokeColor=#ff0000;rounded=0;" edge="1" source="5H19UYzy1RIv0YBOH7oe-27" parent="5H19UYzy1RIv0YBOH7oe-2">
          <mxGeometry relative="1" as="geometry">
            <mxPoint x="190" y="1040" as="targetPoint" />
          </mxGeometry>
        </mxCell>
        <mxCell id="5H19UYzy1RIv0YBOH7oe-29" value="" style="ellipse;html=1;shape=endState;fillColor=#000000;strokeColor=#ff0000;" vertex="1" parent="5H19UYzy1RIv0YBOH7oe-2">
          <mxGeometry x="175" y="1040" width="30" height="30" as="geometry" />
        </mxCell>
        <mxCell id="5H19UYzy1RIv0YBOH7oe-3" value="&lt;font style=&quot;font-size: 20px;&quot;&gt;Character&lt;/font&gt;" style="swimlane;whiteSpace=wrap;html=1;startSize=30;" vertex="1" parent="1">
          <mxGeometry x="760" y="120" width="360" height="1100" as="geometry" />
        </mxCell>
        <mxCell id="5H19UYzy1RIv0YBOH7oe-20" value="&lt;font style=&quot;font-size: 16px;&quot;&gt;Xuất hiện Item phía trên character&lt;/font&gt;" style="rounded=1;whiteSpace=wrap;html=1;arcSize=40;fontColor=#000000;fillColor=#ffffc0;strokeColor=#ff0000;" vertex="1" parent="5H19UYzy1RIv0YBOH7oe-3">
          <mxGeometry x="30" y="710" width="170" height="70" as="geometry" />
        </mxCell>
        <mxCell id="5H19UYzy1RIv0YBOH7oe-11" value="" style="edgeStyle=orthogonalEdgeStyle;html=1;verticalAlign=bottom;endArrow=open;endSize=8;strokeColor=#ff0000;rounded=0;" edge="1" source="5H19UYzy1RIv0YBOH7oe-10" parent="1" target="5H19UYzy1RIv0YBOH7oe-12">
          <mxGeometry relative="1" as="geometry">
            <mxPoint x="590" y="510" as="targetPoint" />
          </mxGeometry>
        </mxCell>
        <mxCell id="5H19UYzy1RIv0YBOH7oe-13" value="" style="edgeStyle=orthogonalEdgeStyle;html=1;verticalAlign=bottom;endArrow=open;endSize=8;strokeColor=#ff0000;rounded=0;" edge="1" source="5H19UYzy1RIv0YBOH7oe-12" parent="1" target="5H19UYzy1RIv0YBOH7oe-14">
          <mxGeometry relative="1" as="geometry">
            <mxPoint x="230" y="610" as="targetPoint" />
          </mxGeometry>
        </mxCell>
        <mxCell id="5H19UYzy1RIv0YBOH7oe-18" value="&lt;span style=&quot;font-size: 13px;&quot;&gt;Đúng&lt;/span&gt;" style="edgeStyle=orthogonalEdgeStyle;html=1;align=left;verticalAlign=top;endArrow=open;endSize=8;strokeColor=#ff0000;rounded=0;" edge="1" source="5H19UYzy1RIv0YBOH7oe-16" parent="1" target="5H19UYzy1RIv0YBOH7oe-20">
          <mxGeometry x="-1" relative="1" as="geometry">
            <mxPoint x="580" y="820" as="targetPoint" />
            <Array as="points">
              <mxPoint x="580" y="865" />
            </Array>
          </mxGeometry>
        </mxCell>
        <mxCell id="5H19UYzy1RIv0YBOH7oe-21" value="" style="edgeStyle=orthogonalEdgeStyle;html=1;verticalAlign=bottom;endArrow=open;endSize=8;strokeColor=#ff0000;rounded=0;" edge="1" source="5H19UYzy1RIv0YBOH7oe-20" parent="1" target="5H19UYzy1RIv0YBOH7oe-23">
          <mxGeometry relative="1" as="geometry">
            <mxPoint x="875" y="990" as="targetPoint" />
            <Array as="points">
              <mxPoint x="880" y="970" />
            </Array>
          </mxGeometry>
        </mxCell>
      </root>
    </mxGraphModel>
  </diagram>
</mxfile>
